<svg width="512" height="512" viewBox="0 0 512 512" fill="none" xmlns="http://www.w3.org/2000/svg">
<rect width="512" height="512" fill="#2C5FC3"/>
<path d="M255.402 455C245.692 455 236.122 452.435 227.748 447.563L103.216 375.147C86.3485 365.344 75.901 347.15 76.0007 327.644L76.5988 183.845C76.6985 164.358 87.2656 146.244 104.233 136.581L229.363 65.2178C237.657 60.5054 247.068 58 256.598 58C266.308 58 275.878 60.565 284.252 65.4564L408.764 137.873C425.652 147.676 436.079 165.89 436 185.376L435.381 329.155C435.302 348.642 424.735 366.776 407.748 376.439L282.617 447.802C274.343 452.515 264.912 455 255.402 455ZM258.054 92.9557C253.029 92.9557 248.065 94.2681 243.698 96.7535L128.019 162.728C119.047 167.838 113.504 177.343 113.464 187.642L112.906 320.546C112.866 330.865 118.329 340.41 127.261 345.599L242.363 412.528C246.789 415.113 251.833 416.465 256.937 416.465C261.962 416.465 266.926 415.153 271.292 412.667L386.972 346.693C395.944 341.583 401.487 332.078 401.527 321.779L401.726 278.094C401.726 276.284 399.772 275.131 398.197 276.046L264.713 352.658C263.058 353.612 260.985 352.419 260.985 350.511V325.238C260.985 318.478 264.613 312.234 270.495 308.854L396.841 236.318C399.972 234.528 401.906 231.188 401.926 227.589L402.125 181.359C402.145 174.758 394.987 170.602 389.265 173.903L264.713 245.405C263.058 246.359 260.985 245.166 260.985 243.257V218.005C260.985 211.244 264.613 205.001 270.495 201.621L356.806 152.07C359.219 150.678 359.219 147.219 356.806 145.827L272.628 96.8927C268.202 94.3277 263.158 92.9557 258.054 92.9557Z" fill="white"/>
</svg>
